<?xml version="1.0" standalone="no"?>
<!DOCTYPE svg PUBLIC "-//W3C//DTD SVG 20010904//EN"
 "http://www.w3.org/TR/2001/REC-SVG-20010904/DTD/svg10.dtd">
<svg version="1.0" xmlns="http://www.w3.org/2000/svg"
 width="777.000000pt" height="777.000000pt" viewBox="0 0 777.000000 777.000000"
 preserveAspectRatio="xMidYMid meet">
<metadata>
Created by potrace 1.14, written by Peter Selinger 2001-2017
</metadata>
<g transform="translate(0.000000,777.000000) scale(0.100000,-0.100000)"
fill="#000000" stroke="none">
<path d="M4975 7413 c-106 -10 -238 -34 -265 -48 -98 -51 -92 -206 10 -257 42
-22 73 -22 215 -3 61 8 130 15 155 15 60 0 129 35 154 79 39 67 16 163 -47
201 -32 20 -105 24 -222 13z"/>
<path d="M5950 7258 c-85 -59 -91 -169 -14 -239 16 -14 60 -38 99 -53 38 -15
113 -48 166 -72 105 -48 145 -53 199 -26 75 38 104 137 59 209 -23 36 -135 97
-313 168 -103 41 -150 44 -196 13z"/>
<path d="M3804 6999 c-99 -65 -220 -158 -258 -197 -56 -60 -45 -163 23 -211
71 -51 132 -40 237 40 43 34 112 84 152 111 87 59 112 95 112 161 0 91 -54
147 -141 147 -39 0 -59 -8 -125 -51z"/>
<path d="M7000 6559 c-69 -28 -110 -106 -91 -176 6 -21 48 -88 93 -149 46 -61
97 -131 114 -156 38 -55 102 -84 159 -74 73 14 135 99 121 169 -13 63 -217
339 -279 378 -35 21 -77 24 -117 8z"/>
<path d="M3010 6122 c-29 -15 -45 -38 -91 -128 -30 -60 -62 -127 -71 -150
l-17 -41 -171 -7 c-507 -19 -932 -143 -1342 -390 -990 -595 -1495 -1755 -1259
-2889 160 -764 657 -1436 1346 -1820 527 -294 1168 -403 1775 -301 967 162
1781 851 2109 1787 l46 132 90 7 c125 9 245 28 275 43 42 22 71 61 77 103 7
55 -2 85 -38 127 -45 51 -83 58 -217 39 -62 -9 -114 -15 -116 -13 -2 2 3 45
12 94 23 138 22 585 -1 735 -81 513 -270 947 -583 1340 -88 110 -295 317 -404
404 -356 283 -772 474 -1205 556 -33 6 -66 13 -73 15 -9 3 0 29 30 87 66 132
58 204 -32 266 -40 27 -93 29 -140 4z m-120 -632 c764 -59 1423 -443 1845
-1075 647 -970 505 -2271 -336 -3080 -356 -342 -784 -557 -1284 -646 -170 -30
-481 -37 -670 -15 -457 53 -872 226 -1240 516 -190 150 -423 416 -554 633
-510 845 -456 1916 136 2709 91 122 335 370 448 455 496 374 1070 548 1655
503z"/>
<path d="M7525 5426 c-41 -18 -83 -69 -90 -110 -4 -18 -2 -67 4 -107 6 -41 15
-123 20 -182 11 -132 33 -175 105 -202 63 -24 110 -14 159 36 l40 40 -6 132
c-8 167 -31 311 -57 347 -38 53 -113 73 -175 46z"/>
<path d="M7425 4185 c-46 -16 -85 -58 -104 -112 -8 -21 -40 -97 -72 -170 -33
-72 -59 -142 -59 -155 1 -36 36 -105 63 -123 66 -43 141 -38 189 12 51 53 178
351 178 417 0 99 -99 165 -195 131z"/>
<path d="M6687 3156 c-15 -8 -48 -33 -75 -54 -26 -22 -85 -66 -132 -99 -111
-77 -133 -109 -128 -185 3 -44 10 -64 29 -84 69 -74 129 -71 256 14 127 85
241 179 258 213 34 64 8 149 -57 189 -39 24 -111 26 -151 6z"/>
</g>
</svg>
